<?xml version="1.0" encoding="iso-8859-1"?>
<!-- Generator: Adobe Illustrator 19.0.0, SVG Export Plug-In . SVG Version: 6.00 Build 0)  -->
<svg xmlns="http://www.w3.org/2000/svg" xmlns:xlink="http://www.w3.org/1999/xlink" version="1.1" id="Layer_1" x="0px" y="0px" viewBox="0 0 503.607 503.607" style="enable-background:new 0 0 503.607 503.607;" xml:space="preserve" width="512px" height="512px">
<g transform="translate(1 1)">
	<g>
		<g>
			<path d="M435.459,242.41h-33.705c-3.191-111.942-69.873-201.443-150.95-201.443c-76.983,0-139.57,89.501-142.565,201.443H66.148     C29.216,242.41-1,272.626-1,309.557v83.934c0,36.931,30.216,67.148,67.148,67.148h50.361h33.574h209.836h33.574h41.967     c36.931,0,67.148-30.216,67.148-67.148v-83.934C502.607,272.626,472.39,242.41,435.459,242.41z M250.803,57.754     c72.184,0,130.938,82.256,134.295,184.656h-16.787c-3.357-93.167-54.557-167.869-117.508-167.869     c-57.915,0-106.597,76.38-109.115,167.869h-16.787C128.259,140.01,182.816,57.754,250.803,57.754z M158.475,259.197h193.049     v184.656H158.475V259.197z M158.618,242.41c2.705-81.25,44.305-151.082,92.185-151.082c53.627,0,97.813,66.859,100.582,151.082     H158.618z M15.787,393.492v-83.934c0-27.698,22.662-50.361,50.361-50.361h41.967v184.656H66.148     C38.449,443.852,15.787,421.19,15.787,393.492z M124.902,443.852V259.197h16.787v184.656H124.902z M368.311,443.852V259.197     h16.787v184.656H368.311z M485.82,393.492c0,27.698-22.662,50.361-50.361,50.361h-33.574V259.197h33.574     c27.698,0,50.361,22.662,50.361,50.361V393.492z" fill="#FFFFFF"/>
			<path d="M284.377,309.557h-67.148c-18.466,0-33.574,15.108-33.574,33.574v16.787c0,18.466,15.108,33.574,33.574,33.574h67.148     c18.466,0,33.574-15.108,33.574-33.574v-16.787C317.951,324.666,302.843,309.557,284.377,309.557z M301.164,359.918     c0,9.233-7.554,16.787-16.787,16.787h-67.148c-9.233,0-16.787-7.554-16.787-16.787v-16.787c0-9.233,7.554-16.787,16.787-16.787     h67.148c9.233,0,16.787,7.554,16.787,16.787V359.918z" fill="#FFFFFF"/>
		</g>
	</g>
</g>
<g>
</g>
<g>
</g>
<g>
</g>
<g>
</g>
<g>
</g>
<g>
</g>
<g>
</g>
<g>
</g>
<g>
</g>
<g>
</g>
<g>
</g>
<g>
</g>
<g>
</g>
<g>
</g>
<g>
</g>
</svg>
