<?xml version="1.0" encoding="iso-8859-1"?>
<!-- Generator: Adobe Illustrator 19.0.0, SVG Export Plug-In . SVG Version: 6.00 Build 0)  -->
<svg version="1.1" id="Capa_1" xmlns="http://www.w3.org/2000/svg" xmlns:xlink="http://www.w3.org/1999/xlink" x="0px" y="0px"
	 viewBox="0 0 195.969 195.969" style="enable-background:new 0 0 195.969 195.969;" xml:space="preserve">
<path style="fill:#FFFFFF;" d="M105.51,33.994l19.052-22.101c3.468-4.023,8.501-6.443,13.809-6.639
	c5.306-0.196,10.505,1.845,14.259,5.6l34.309,34.309c3.756,3.756,5.798,8.953,5.6,14.259c-0.196,5.308-2.616,10.341-6.639,13.809
	l-21.637,18.652 M156.853,80.248l20.135-17.357c1.174-1.01,1.852-2.422,1.908-3.97c0.06-1.548-0.514-3.005-1.609-4.101
	l-34.309-34.309c-1.096-1.096-2.553-1.669-4.101-1.609c-1.548,0.056-2.959,0.734-3.97,1.908l-17.348,20.125"/>
<path style="fill:#602F75;" d="M164.267,95.297c-0.959,0-1.911-0.401-2.587-1.184c-1.23-1.427-1.072-3.582,0.357-4.813
	l21.637-18.652c3.306-2.852,5.296-6.989,5.456-11.349c0.162-4.362-1.516-8.634-4.603-11.721l-34.309-34.309
	c-3.087-3.087-7.366-4.763-11.72-4.603c-4.362,0.16-8.497,2.15-11.349,5.456l-19.053,22.1c-1.232,1.427-3.386,1.589-4.813,0.357
	c-1.428-1.231-1.587-3.386-0.357-4.813l19.053-22.101c4.087-4.739,10.016-7.59,16.268-7.822c6.258-0.229,12.375,2.173,16.8,6.598
	l34.309,34.309c4.425,4.424,6.828,10.547,6.598,16.8c-0.23,6.25-3.081,12.179-7.82,16.266l-21.637,18.652
	C165.849,95.026,165.055,95.297,164.267,95.297z M156.855,83.66c-0.959,0-1.911-0.401-2.587-1.184
	c-1.23-1.427-1.072-3.582,0.357-4.813l20.135-17.357c0.452-0.391,0.703-0.913,0.725-1.51c0.022-0.601-0.189-1.138-0.613-1.563
	l-34.309-34.309c-0.425-0.423-0.976-0.64-1.558-0.613c-0.602,0.022-1.125,0.273-1.514,0.724L120.139,43.16
	c-1.23,1.427-3.386,1.587-4.813,0.355c-1.428-1.231-1.587-3.386-0.357-4.815l17.35-20.125c1.635-1.9,3.92-2.999,6.431-3.091
	c2.507-0.114,4.861,0.829,6.639,2.606L179.698,52.4c1.778,1.777,2.703,4.137,2.608,6.646c-0.092,2.504-1.19,4.789-3.091,6.426
	l-20.134,17.357C158.437,83.388,157.643,83.66,156.855,83.66z"/>
<ellipse style="fill:#00E7FF;" cx="78.468" cy="115.621" rx="75.093" ry="75.093"/>
<path style="fill:#602F75;" d="M78.471,194.142c-20.97,0-40.685-8.166-55.513-22.994c-30.611-30.609-30.611-80.415,0-111.024
	c14.828-14.828,34.543-22.994,55.513-22.994s40.684,8.166,55.511,22.994c30.611,30.609,30.611,80.415,0,111.024l0,0l0,0
	C119.154,185.976,99.441,194.142,78.471,194.142z M78.471,43.956c-19.147,0-37.147,7.456-50.686,20.994
	c-27.947,27.948-27.947,73.423,0,101.371c13.539,13.539,31.539,20.994,50.686,20.994s37.147-7.456,50.685-20.994l0,0
	c27.947-27.948,27.947-73.423,0-101.371C115.616,51.412,97.616,43.956,78.471,43.956z"/>
<circle style="fill:#EA3457;" cx="79.5" cy="114.608" r="39.253"/>
<g>
	<path style="fill:#FFFFFF;" d="M83.395,103.72c0.017,2.727-0.817,4.934-2.505,6.62c-1.69,1.69-3.664,2.161-5.924,1.403
		l-0.203,0.203c0.096,0.294,0.176,0.78,0.232,1.48c0.058,0.693,0.046,1.314-0.029,1.85c-0.177,1.451-0.782,2.697-1.824,3.736
		c-2.067,2.067-4.543,3-7.429,2.797c-2.886-0.203-5.501-1.473-7.835-3.809c-2.318-2.316-3.574-4.927-3.765-7.82
		c-0.06-1.101,0.114-2.301,0.522-3.593c0.154-0.461,0.297-0.819,0.433-1.067l0.232-0.35c0.423-0.85,0.84-1.476,1.246-1.884
		c1.118-1.12,2.623-0.734,4.516,1.161c0.771,0.773,1.186,1.381,1.244,1.826c0.079,0.577-0.133,1.367-0.637,2.374
		c-0.425,0.811-0.357,1.807,0.203,2.98c0.249,0.486,0.597,0.947,1.041,1.393c1.024,1.024,1.985,1.567,2.881,1.633
		c0.898,0.07,1.608-0.157,2.13-0.679c0.522-0.521,0.744-1.213,0.666-2.084c-0.079-0.87-0.439-1.63-1.085-2.277
		c-0.647-0.647-1.067-1.101-1.26-1.374c-0.193-0.266-0.35-0.62-0.463-1.039c-0.271-0.773,0.213-1.78,1.449-3.014
		c1.352-1.353,2.51-1.797,3.475-1.333c0.425,0.23,0.975,0.683,1.652,1.36c1.466,1.466,2.577,1.826,3.33,1.073
		c0.404-0.406,0.599-0.986,0.579-1.741s-0.372-1.469-1.056-2.154c-0.686-0.686-1.347-1.12-1.983-1.294
		c-0.637-0.174-1.12-0.193-1.449-0.056l-0.522,0.178c-1.41,0.521-2.528,0.364-3.359-0.466c-0.483-0.483-0.84-1.186-1.073-2.113
		c-0.404-1.527-0.242-2.654,0.493-3.389c0.307-0.307,1.186-0.744,2.635-1.304c0.249-0.094,0.768-0.186,1.55-0.273
		c0.783-0.087,1.563-0.067,2.347,0.06c0.78,0.119,1.719,0.461,2.809,1.014c1.091,0.546,2.137,1.326,3.142,2.33
		C82.176,98.451,83.376,101.001,83.395,103.72z"/>
	<path style="fill:#FFFFFF;" d="M86.868,136.047c0.792,0.79,1.265,1.447,1.42,1.966c0.155,0.524,0.102,1.027-0.16,1.521
		c-0.258,0.493-0.695,1.043-1.304,1.654c-0.608,0.606-1.157,1.033-1.65,1.273c-0.493,0.241-0.951,0.287-1.376,0.13
		c-0.657-0.193-1.374-0.676-2.145-1.451l-11.324-11.32c-0.696-0.7-1.033-1.56-1.015-2.58c0.02-1.024,0.377-1.884,1.072-2.58
		c1.043-1.039,2.367-1.64,3.968-1.794s3.231-0.034,4.881,0.36c1.649,0.396,3.292,0.804,4.924,1.22
		c1.63,0.413,3.195,0.597,4.692,0.546c1.497-0.046,2.679-0.507,3.548-1.374c0.174-0.174,0.35-0.486,0.536-0.94
		c0.181-0.457,0.294-0.867,0.331-1.234c0.038-0.367-0.027-0.811-0.201-1.333c-0.176-0.521-0.57-1.094-1.186-1.707
		c-0.618-0.62-1.382-0.927-2.29-0.927c-0.906,0-1.611,0.193-2.113,0.58l-0.783,0.546l-0.174,0.174
		c-0.425,0.427-0.756,0.734-0.998,0.913c-0.242,0.186-0.575,0.333-1,0.451c-0.753,0.174-1.739-0.35-2.953-1.563
		c-1.352-1.353-1.787-2.521-1.306-3.507c0.212-0.403,0.657-0.947,1.333-1.62c2.007-2.007,4.526-3.087,7.559-3.243
		c3.033-0.155,5.71,0.93,8.038,3.256c2.326,2.326,3.407,5.019,3.243,8.079c-0.166,3.063-1.28,5.627-3.345,7.69
		c-1.103,1.102-2.384,1.903-3.852,2.403c-1.468,0.503-2.838,0.717-4.113,0.64c-2.703-0.154-4.837-0.573-6.402-1.246l-1.014-0.433
		l-0.145,0.147L86.868,136.047z"/>
	<path style="fill:#FFFFFF;" d="M21.842,116.979c-1.884,0-3.413-1.529-3.413-3.413c0-34.248,27.863-62.112,62.111-62.112
		c1.884,0,3.413,1.529,3.413,3.413c0,1.884-1.529,3.413-3.413,3.413c-30.484,0-55.284,24.801-55.284,55.286
		C25.255,115.45,23.728,116.979,21.842,116.979z"/>
</g>
<g>
</g>
<g>
</g>
<g>
</g>
<g>
</g>
<g>
</g>
<g>
</g>
<g>
</g>
<g>
</g>
<g>
</g>
<g>
</g>
<g>
</g>
<g>
</g>
<g>
</g>
<g>
</g>
<g>
</g>
</svg>
